<svg width="68" height="51" viewBox="0 0 68 51" fill="none" xmlns="http://www.w3.org/2000/svg">
<path d="M20 20C19.9975 18.1052 20.6675 16.2711 21.8909 14.8242C23.1142 13.3773 24.8114 12.4115 26.6802 12.0989C28.549 11.7863 30.4681 12.1472 32.0957 13.1173C33.7233 14.0873 34.9538 15.6036 35.568 17.396C32.3502 20.1903 30.0129 23.8588 28.84 27.956C27.7247 28.0738 26.5972 27.9557 25.5305 27.6095C24.4638 27.2634 23.4818 26.6968 22.6483 25.9466C21.8147 25.1964 21.1482 24.2793 20.692 23.2548C20.2357 22.2304 20 21.1215 20 20ZM28 16C26.9391 16 25.9217 16.4214 25.1716 17.1716C24.4214 17.9217 24 18.9391 24 20C24 21.0609 24.4214 22.0783 25.1716 22.8284C25.9217 23.5786 26.9391 24 28 24C29.0609 24 30.0783 23.5786 30.8284 22.8284C31.5786 22.0783 32 21.0609 32 20C32 18.9391 31.5786 17.9217 30.8284 17.1716C30.0783 16.4214 29.0609 16 28 16ZM40 8C40 10.104 40.812 12.016 42.14 13.444C44.6496 12.4857 47.3137 11.9963 50 12C52.08 12 54.092 12.288 56 12.828V6C56 4.4087 55.3679 2.88258 54.2426 1.75736C53.1174 0.63214 51.5913 0 50 0H6C4.4087 0 2.88258 0.63214 1.75736 1.75736C0.632141 2.88258 0 4.4087 0 6V34C0 35.5913 0.632141 37.1174 1.75736 38.2426C2.88258 39.3679 4.4087 40 6 40H28.828C28.4579 38.6925 28.2101 37.3534 28.088 36H16V32C16 29.8783 15.1571 27.8434 13.6569 26.3431C12.1566 24.8429 10.1217 24 8 24H4V16H8C10.1217 16 12.1566 15.1571 13.6569 13.6569C15.1571 12.1566 16 10.1217 16 8V4H40V8ZM50 12H48C46.9391 12 45.9217 11.5786 45.1716 10.8284C44.4214 10.0783 44 9.06087 44 8V4H50C50.5304 4 51.0391 4.21071 51.4142 4.58579C51.7893 4.96086 52 5.46957 52 6V12H50ZM4 6C4 5.46957 4.21071 4.96086 4.58579 4.58579C4.96086 4.21071 5.46957 4 6 4H12V8C12 9.06087 11.5786 10.0783 10.8284 10.8284C10.0783 11.5786 9.06087 12 8 12H4V6ZM12 36H6C5.46957 36 4.96086 35.7893 4.58579 35.4142C4.21071 35.0391 4 34.5304 4 34V28H8C9.06087 28 10.0783 28.4214 10.8284 29.1716C11.5786 29.9217 12 30.9391 12 32V36ZM40.26 21.768C40.5481 22.7945 40.628 23.8683 40.4952 24.9261C40.3624 25.984 40.0195 27.0047 39.4866 27.9281C38.9537 28.8516 38.2416 29.6592 37.3921 30.3035C36.5426 30.9478 35.5729 31.4158 34.54 31.68L32.696 32.152C32.5636 33.5042 32.577 34.8667 32.736 36.216L34.136 36.548C35.1962 36.7992 36.1938 37.2644 37.0678 37.9149C37.9418 38.5654 38.6737 39.3876 39.2187 40.331C39.7636 41.2745 40.1101 42.3193 40.2369 43.4014C40.3637 44.4835 40.2681 45.5801 39.956 46.624L39.452 48.316C40.48 49.128 41.6 49.824 42.792 50.388L44.092 49.008C44.8404 48.2155 45.7429 47.5844 46.744 47.1532C47.7451 46.7221 48.8237 46.5001 49.9137 46.5009C51.0037 46.5016 52.0821 46.7251 53.0826 47.1576C54.0831 47.5901 54.9847 48.2225 55.732 49.016L57.08 50.448C58.248 49.908 59.348 49.24 60.364 48.456L59.74 46.232C59.4519 45.2055 59.372 44.1317 59.5048 43.0739C59.6376 42.016 59.9805 40.9953 60.5134 40.0719C61.0463 39.1484 61.7584 38.3408 62.6079 37.6965C63.4574 37.0522 64.4271 36.5842 65.46 36.32L67.304 35.848C67.4369 34.4945 67.4235 33.1306 67.264 31.78L65.868 31.452C64.807 31.2013 63.8085 30.7363 62.9337 30.0857C62.059 29.4352 61.3264 28.6126 60.781 27.6687C60.2356 26.7247 59.8889 25.6793 59.7621 24.5965C59.6354 23.5137 59.7313 22.4164 60.044 21.372L60.548 19.688C59.5183 18.8728 58.3991 18.1777 57.212 17.616L55.912 18.988C55.1639 19.7807 54.2616 20.4122 53.2607 20.8437C52.2597 21.2751 51.1811 21.4975 50.0911 21.4971C49.0011 21.4968 47.9227 21.2737 46.922 20.8415C45.9214 20.4093 45.0196 19.7772 44.272 18.984L42.924 17.552C41.7573 18.0901 40.6545 18.7569 39.636 19.54L40.26 21.768ZM50 38C48.9391 38 47.9217 37.5786 47.1716 36.8284C46.4214 36.0783 46 35.0609 46 34C46 32.9391 46.4214 31.9217 47.1716 31.1716C47.9217 30.4214 48.9391 30 50 30C51.0609 30 52.0783 30.4214 52.8284 31.1716C53.5786 31.9217 54 32.9391 54 34C54 35.0609 53.5786 36.0783 52.8284 36.8284C52.0783 37.5786 51.0609 38 50 38Z" fill="#4F48ED"/>
</svg>
